<?xml version='1.0' encoding='utf-8'?>
<svg xmlns:xlink="http://www.w3.org/1999/xlink" xmlns="http://www.w3.org/2000/svg" width="215.41771mm" height="210.00002mm" version="1.1" style="clip-rule:evenodd;fill-rule:evenodd;image-rendering:optimizeQuality;shape-rendering:geometricPrecision;text-rendering:geometricPrecision" viewBox="0 0 17985.902 17532.734" id="svg2"><metadata id="metadata70"/><defs id="defs4"><linearGradient id="linearGradient7814"><stop style="stop-color:#9900ff;stop-opacity:1;" offset="0" id="stop7816"/><stop style="stop-color:#b951ff;stop-opacity:1" offset="1" id="stop7818"/></linearGradient><linearGradient id="linearGradient7806"><stop style="stop-color:#ff0000;stop-opacity:1;" offset="0" id="stop7808"/><stop style="stop-color:#ff5151;stop-opacity:1" offset="1" id="stop7810"/></linearGradient><linearGradient id="linearGradient7798"><stop style="stop-color:#ff6600;stop-opacity:1;" offset="0" id="stop7800"/><stop style="stop-color:#ff9751;stop-opacity:1" offset="1" id="stop7802"/></linearGradient><linearGradient id="linearGradient7790"><stop style="stop-color:#ffee00;stop-opacity:1;" offset="0" id="stop7792"/><stop style="stop-color:#fff351;stop-opacity:1" offset="1" id="stop7794"/></linearGradient><linearGradient id="linearGradient7782"><stop style="stop-color:#00ff00;stop-opacity:1;" offset="0" id="stop7784"/><stop style="stop-color:#51ff51;stop-opacity:1" offset="1" id="stop7786"/></linearGradient><linearGradient id="linearGradient7774"><stop style="stop-color:#0099ff;stop-opacity:1;" offset="0" id="stop7776"/><stop style="stop-color:#51b9ff;stop-opacity:1" offset="1" id="stop7778"/></linearGradient><linearGradient id="linearGradient7644"><stop style="stop-color:#4400ff;stop-opacity:1;" offset="0" id="stop7646"/><stop style="stop-color:#8451ff;stop-opacity:1" offset="1" id="stop7648"/></linearGradient><style type="text/css" id="style6"> .str0 {stroke:#373435;stroke-width:16.6985} .fil7 {fill:none} .fil5 {fill:#263CCE} .fil3 {fill:#40AA60} .fil4 {fill:#75AADB} .fil6 {fill:#A00EC1} .fil0 {fill:#DF0000} .fil1 {fill:#FFA000} .fil2 {fill:gold} </style><linearGradient xlink:href="#linearGradient7806" id="linearGradient7822" x1="7908" y1="3636" x2="9339" y2="1240" gradientUnits="userSpaceOnUse"/><linearGradient xlink:href="#linearGradient7814" id="linearGradient7824" x1="8155.0747" y1="1752.4226" x2="10911" y2="1311" gradientUnits="userSpaceOnUse"/><linearGradient xlink:href="#linearGradient7644" id="linearGradient7826" x1="9819" y1="655" x2="11836" y2="2584" gradientUnits="userSpaceOnUse"/><linearGradient xlink:href="#linearGradient7774" id="linearGradient7828" x1="11793.107" y1="1332.4515" x2="11417" y2="4101" gradientUnits="userSpaceOnUse"/><linearGradient xlink:href="#linearGradient7782" id="linearGradient7830" x1="12373.11" y1="3294.0549" x2="9970" y2="4719" gradientUnits="userSpaceOnUse"/><linearGradient xlink:href="#linearGradient7790" id="linearGradient7832" x1="11189.159" y1="4986.3589" x2="8585" y2="3973" gradientUnits="userSpaceOnUse"/><linearGradient xlink:href="#linearGradient7798" id="linearGradient7834" x1="9201.8711" y1="5021.5537" x2="8304" y2="2425" gradientUnits="userSpaceOnUse"/></defs><g id="layer1" transform="translate(4.143e-4,309.45351)" style="display:inline"><g transform="translate(-4.143e-4,-309.45351)" style="clip-rule:evenodd;fill-rule:evenodd;image-rendering:optimizeQuality;shape-rendering:geometricPrecision;text-rendering:geometricPrecision" id="g881"><polygon transform="matrix(3.0771433,0,0,3.0771433,-21936.955,-0.41415146)" style="fill:url(#linearGradient7832);fill-opacity:1;stroke-width:0.98235077" id="polygon26" points="8585,3973 9318,3440 10052,2908 10785,3440 11519,3973 11238,4836 10958,5698 10052,5698 9145,5698 8865,4836 " class="fil2"/><polygon transform="matrix(3.0771433,0,0,3.0771433,-21936.955,-0.41415146)" style="fill:url(#linearGradient7830);fill-opacity:1;stroke-width:0.98235077" id="polygon28" points="9970,4719 10011,3813 10052,2908 10926,2666 11800,2425 12299,3182 12799,3938 12233,4647 11668,5356 10819,5038 " class="fil3"/><polygon transform="matrix(3.0771433,0,0,3.0771433,-21936.955,-0.41415146)" style="fill:url(#linearGradient7828);fill-opacity:1;stroke-width:0.98235077" id="polygon30" points="11417,4101 10734,3504 10052,2908 10408,2074 10764,1240 11667,1321 12570,1403 12772,2286 12974,3170 12196,3635 " class="fil4"/><polygon transform="matrix(3.0771433,0,0,3.0771433,-21936.955,-0.41415146)" style="fill:url(#linearGradient7826);fill-opacity:1;stroke-width:0.98235077" id="polygon32" points="11836,2584 10944,2746 10052,2908 9622,2109 9192,1311 9819,655 10445,0 11262,393 12079,787 11957,1685 " class="fil5"/><polygon transform="matrix(3.0771433,0,0,3.0771433,-21936.955,-0.41415146)" style="fill:url(#linearGradient7824);fill-opacity:1;stroke-width:0.98235077" id="polygon34" points="10911,1311 10481,2109 10052,2908 9160,2746 8267,2584 8146,1685 8024,787 8841,394 9657,0 10284,655 " class="fil6"/><polygon transform="matrix(3.0771433,0,0,3.0771433,-21936.955,-0.41415146)" style="fill:url(#linearGradient7822);fill-opacity:1;stroke-width:0.98235077" id="polygon36" points="8585,3973 7908,3636 7129,3171 7331,2287 7533,1403 8436,1322 9339,1240 9695,2074 10052,2908 " class="fil0"/><polygon transform="matrix(3.0771433,0,0,3.0771433,-21936.955,-0.41415146)" style="fill:url(#linearGradient7834);fill-opacity:1;stroke-width:0.98235077" id="polygon38" points="8304,2425 9178,2666 10052,2908 8585,3973 8969,5156 8436,5356 7870,4648 7305,3939 7804,3182 " class="fil1"/></g></g><g id="layer2" transform="translate(4.143e-4,309.45351)"><g transform="translate(-4.143e-4,-309.45351)" style="clip-rule:evenodd;fill-rule:evenodd;image-rendering:optimizeQuality;shape-rendering:geometricPrecision;text-rendering:geometricPrecision" id="g898"><path id="polygon64" d="M 6931.7935,3602.5283 8994.4895,8947.9186 6800.4863,3815.2435 2990.2724,4160.1008 2941.7486,3802.935 Z" style="fill:#000000;fill-opacity:0.39759037;stroke:none;stroke-width:3.02283406"/><path style="fill:#000000;fill-opacity:0.39759037;stroke:none;stroke-width:3.02283406" d="M 11885.706,4001.3252 8994.4895,8947.9189 11637.54,4031.3867 8991.2246,1268.4779 9240.1132,1007.7551 Z" id="path7705"/><path id="path7707" d="m 14664.744,8125.6591 -5670.2545,822.2598 5489.6235,-996.9948 511.64,-3791.7399 360.967,31.7835 z" style="fill:#000000;fill-opacity:0.39759037;stroke:none;stroke-width:3.02283406"/><path style="fill:#000000;fill-opacity:0.39759037;stroke:none;stroke-width:3.02283406" d="m 13172.985,12868.339 -4178.3632,-3920.3561 4202.3472,3670.1861 3283.429,-1964.219 200.22,302.025 z" id="path7709"/><path id="path7711" d="m 8531.0129,14658.901 463.6427,-5710.7747 -253.0089,5573.6857 3581.9883,1344.771 -111.521,344.774 z" style="fill:#000000;fill-opacity:0.39759037;stroke:none;stroke-width:3.02283406"/><path style="fill:#000000;fill-opacity:0.39759037;stroke:none;stroke-width:3.02283406" d="m 4241.913,12148.277 4752.6503,-3200.035 -4514.1098,3279.145 1183.4157,3638.486 -339.0368,127.909 z" id="path7713"/><path id="path7715" d="M 3527.16,7234.4673 8994.4156,8948.242 3614.3299,7470.182 1511.4742,10666.594 1199.8544,10481.662 Z" style="fill:#000000;fill-opacity:0.39759037;stroke:none;stroke-width:3.02283406"/></g></g></svg>